<svg width="46" height="32" viewBox="0 0 46 32" fill="none" xmlns="http://www.w3.org/2000/svg">
<rect width="46" height="32" fill="white"/>
<path fill-rule="evenodd" clip-rule="evenodd" d="M12.6968 11.1244C12.31 11.5936 11.6912 11.9636 11.0723 11.9108C10.995 11.2764 11.298 10.6023 11.6525 10.186C12.0393 9.70357 12.7161 9.35993 13.264 9.3335C13.3285 9.99434 13.0771 10.642 12.6968 11.1244ZM13.2575 12.0363C12.7123 12.0042 12.2149 12.2044 11.8131 12.3662C11.5545 12.4702 11.3356 12.5584 11.169 12.5584C10.9821 12.5584 10.7541 12.4655 10.4981 12.3613C10.1626 12.2247 9.77914 12.0685 9.37699 12.076C8.45521 12.0892 7.59789 12.6245 7.12733 13.477C6.16042 15.1819 6.87593 17.7063 7.81061 19.0941C8.26827 19.7814 8.81619 20.5347 9.53814 20.5083C9.85576 20.496 10.0842 20.3966 10.3207 20.2938C10.5929 20.1753 10.8757 20.0523 11.3173 20.0523C11.7435 20.0523 12.0139 20.1721 12.2735 20.2871C12.5203 20.3965 12.7574 20.5015 13.1092 20.4951C13.857 20.4819 14.3275 19.8078 14.7852 19.1205C15.2791 18.3829 15.4962 17.663 15.5291 17.5538L15.533 17.5411C15.5322 17.5403 15.5261 17.5375 15.5153 17.5324L15.5153 17.5324C15.3502 17.4549 14.0883 16.8626 14.0762 15.2744C14.064 13.9414 15.0771 13.266 15.2366 13.1596L15.2366 13.1596C15.2463 13.1532 15.2528 13.1488 15.2558 13.1465C14.6112 12.1685 13.6056 12.0628 13.2575 12.0363ZM18.4337 20.4224V10.1199H22.2047C24.1514 10.1199 25.5115 11.4944 25.5115 13.5034C25.5115 15.5123 24.1256 16.9001 22.1531 16.9001H19.9937V20.4224H18.4337ZM19.9935 11.468H21.792C23.1457 11.468 23.9192 12.2081 23.9192 13.51C23.9192 14.8119 23.1457 15.5586 21.7855 15.5586H19.9935V11.468ZM30.6619 19.1866C30.2494 19.9928 29.3405 20.5017 28.3607 20.5017C26.9103 20.5017 25.8983 19.6162 25.8983 18.2813C25.8983 16.9596 26.8781 16.1996 28.6894 16.0873L30.6361 15.9683V15.4C30.6361 14.5607 30.1011 14.1048 29.1471 14.1048C28.3607 14.1048 27.787 14.5211 27.671 15.1555H26.2657C26.3109 13.8206 27.5356 12.8492 29.1922 12.8492C30.9778 12.8492 32.1381 13.8074 32.1381 15.2943V20.4224H30.6942V19.1866H30.6619ZM28.7796 19.2791C27.948 19.2791 27.4195 18.8694 27.4195 18.2416C27.4195 17.594 27.9287 17.2173 28.9021 17.1578L30.636 17.0455V17.627C30.636 18.5919 29.8367 19.2791 28.7796 19.2791ZM36.9274 20.8255C36.3022 22.6296 35.5866 23.2244 34.0654 23.2244C33.9493 23.2244 33.5626 23.2111 33.4723 23.1847V21.9489C33.569 21.9622 33.8075 21.9754 33.93 21.9754C34.6197 21.9754 35.0065 21.678 35.245 20.9048L35.3868 20.4488L32.7439 12.9483H34.3748L36.2119 19.0346H36.2441L38.0813 12.9483H39.667L36.9274 20.8255Z" fill="black"/>
</svg>
