<svg width="46" height="32" viewBox="0 0 46 32" fill="none" xmlns="http://www.w3.org/2000/svg">
<rect width="46" height="32" fill="white"/>
<path fill-rule="evenodd" clip-rule="evenodd" d="M21.4108 20.7039V16.7911H23.4303C24.2579 16.7911 24.9563 16.5138 25.5257 15.9669L25.6624 15.8282C26.7025 14.696 26.6342 12.9321 25.5257 11.8846C24.9715 11.33 24.2123 11.0296 23.4303 11.045H20.1885V20.7039H21.4108ZM21.4109 15.6048V12.2311H23.4611C23.9016 12.2311 24.3192 12.4006 24.6305 12.7087C25.2911 13.3557 25.3063 14.434 24.6685 15.1041C24.3572 15.4353 23.9167 15.6202 23.4611 15.6048H21.4109ZM31.3641 14.6112C30.8402 14.126 30.1266 13.8795 29.2231 13.8795C28.0615 13.8795 27.1884 14.3108 26.6114 15.1658L27.6895 15.8513C28.0843 15.2659 28.6234 14.9732 29.3066 14.9732C29.7394 14.9732 30.157 15.135 30.4834 15.4277C30.8023 15.705 30.9845 16.1055 30.9845 16.5291V16.8141C30.5138 16.5522 29.9216 16.4136 29.1928 16.4136C28.3424 16.4136 27.6592 16.6139 27.1505 17.0221C26.6418 17.4303 26.3837 17.9695 26.3837 18.655C26.3685 19.2789 26.6342 19.872 27.1049 20.2726C27.5832 20.7039 28.1906 20.9196 28.9043 20.9196C29.747 20.9196 30.4151 20.5421 30.9238 19.7873H30.9769V20.7039H32.1461V16.6293C32.1461 15.7743 31.888 15.0965 31.3641 14.6112ZM28.0466 19.4869C27.796 19.3021 27.6441 19.0017 27.6441 18.6782C27.6441 18.3161 27.8112 18.0157 28.1377 17.777C28.4718 17.5382 28.8894 17.415 29.383 17.415C30.0664 17.4072 30.5979 17.5613 30.9776 17.8694C30.9776 18.3932 30.7726 18.8476 30.3701 19.2327C30.0056 19.6025 29.5121 19.8104 28.9957 19.8104C28.654 19.8181 28.3199 19.7026 28.0466 19.4869ZM34.773 23.6077L38.8575 14.0951H37.5289L35.6385 18.8399H35.6157L33.6797 14.0951H32.3511L35.0311 20.2802L33.5127 23.6077H34.773Z" fill="#3C4043"/>
<path d="M17.1905 15.9439C17.1905 15.5665 17.1601 15.1891 17.0994 14.8193H11.9443V16.9529H14.8977C14.7762 17.6384 14.3814 18.2546 13.8044 18.6398V20.0262H15.5658C16.5983 19.0634 17.1905 17.6385 17.1905 15.9439Z" fill="#4285F4"/>
<path d="M11.9452 21.3662C13.4181 21.3662 14.6632 20.8732 15.5666 20.0259L13.8053 18.6395C13.3118 18.9784 12.6816 19.1709 11.9452 19.1709C10.5179 19.1709 9.31074 18.1927 8.87799 16.8833H7.06348V18.316C7.98971 20.1877 9.88015 21.3662 11.9452 21.3662Z" fill="#34A853"/>
<path d="M8.87795 16.8834C8.65015 16.1978 8.65015 15.4507 8.87795 14.7575V13.3325H7.06315C6.28103 14.8961 6.28103 16.7447 7.06315 18.3083L8.87795 16.8834Z" fill="#FBBC04"/>
<path d="M11.9452 12.47C12.7272 12.4546 13.4788 12.755 14.0406 13.3018L15.6046 11.7151C14.61 10.7754 13.3042 10.2593 11.9452 10.2747C9.88015 10.2747 7.98971 11.4609 7.06348 13.3326L8.87799 14.7653C9.31074 13.4482 10.5179 12.47 11.9452 12.47Z" fill="#EA4335"/>
</svg>
