<svg width="28" height="28" viewBox="0 0 28 28" fill="none" xmlns="http://www.w3.org/2000/svg">
<path d="M14.1532 2H13.8476L13.5573 2.12337L9.11101 6.58024C8.92001 6.8347 8.98495 7.02747 9.302 7.02747H11.2692C11.5901 7.02747 11.8422 7.28193 11.8422 7.60193V10.9099C11.8422 11.2299 12.0981 11.4843 12.4152 11.4843H15.6506C16.0326 11.4843 16.2885 11.2299 16.2885 10.9099V7.60193C16.2885 7.28193 16.5406 7.02747 16.8576 7.02747H18.6988C19.0158 7.02747 19.0808 6.8347 18.8898 6.58024L14.4473 2.12337L14.1532 2Z" fill="#ED1C24"/>
<path d="M21.4943 9.25594C21.3988 9.12871 21.3033 9.08245 21.2307 9.10558C21.1582 9.12871 21.1123 9.2251 21.1123 9.38317V18.4858C21.1123 18.6477 21.1582 18.7595 21.2307 18.7981C21.3033 18.8366 21.3988 18.8058 21.4943 18.6786L25.8107 14.3489C26.0628 14.16 26.0628 13.7745 25.8107 13.52L21.4943 9.25594Z" fill="#ED1C24"/>
<path d="M6.88747 9.00918C6.96769 9.04773 7.01735 9.15954 7.01735 9.32147V18.613C7.01735 18.7749 6.96769 18.8713 6.88747 18.9022C6.81108 18.933 6.7003 18.9022 6.57043 18.8058L2.18908 14.3489C1.93697 14.16 1.93697 13.7745 2.18908 13.52L6.57043 9.12869C6.7003 9.00147 6.81108 8.97062 6.88747 9.00918Z" fill="#ED1C24"/>
<path d="M15.6501 16.323H12.4147C12.0976 16.323 11.8417 16.5774 11.8417 16.8974V20.3982C11.8417 20.7799 11.5896 21.0343 11.2687 21.0343H9.42756C9.11052 21.0343 8.98446 21.2232 9.24039 21.416L13.5568 25.8073C13.6829 25.9346 13.8433 26.0001 13.9999 26.0001C14.1603 26.0001 14.3169 25.9346 14.4468 25.8073L18.7632 21.416C19.0153 21.2232 18.8893 21.0343 18.5722 21.0343H16.8571C16.5401 21.0343 16.288 20.7799 16.288 20.3982V16.8974C16.288 16.5774 16.0321 16.323 15.6501 16.323Z" fill="#ED1C24"/>
</svg>
