<svg width="26" height="26" viewBox="0 0 26 26" fill="none" xmlns="http://www.w3.org/2000/svg">
<path fill-rule="evenodd" clip-rule="evenodd" d="M18.2683 13.0414C18.0168 12.9465 17.7445 12.921 17.4798 12.9673C17.2151 13.0137 16.9676 13.1304 16.7634 13.3052C16.5592 13.48 16.4057 13.7064 16.319 13.9609C16.2322 14.2153 16.2155 14.4883 16.2704 14.7515L17.6512 21.3811L13.6377 23.0429L13.6371 18.6248C13.637 18.2106 13.3012 17.8748 12.887 17.8749C12.4728 17.8749 12.137 18.2108 12.1371 18.625L12.1377 23.0428L8.12439 21.3811L9.50161 14.7622L9.50186 14.761C9.55626 14.4974 9.53875 14.2241 9.45117 13.9696C9.36359 13.7152 9.20916 13.4889 9.00407 13.3147C8.79899 13.1404 8.5508 13.0246 8.28553 12.9792C8.02025 12.9339 7.74767 12.9607 7.49636 13.057L4.24794 14.3068C4.248 14.3068 4.24788 14.3069 4.24794 14.3068C4.03817 14.3875 3.84904 14.5144 3.69486 14.6779C3.54063 14.8415 3.42515 15.0376 3.35694 15.2518L1.07535 22.4401C0.98958 22.7101 0.981907 22.9992 1.05343 23.2733C1.12498 23.5476 1.27276 23.7959 1.47964 23.9896C1.68653 24.1833 1.94405 24.3144 2.22239 24.3678C2.50057 24.4211 2.78816 24.3946 3.05189 24.2913L7.25754 22.6456L12.8878 24.9769L18.5239 22.6433L22.9437 24.3118C23.2085 24.4117 23.4963 24.4347 23.7736 24.3781C24.0509 24.3214 24.3065 24.1875 24.5109 23.9917C24.7153 23.7959 24.8602 23.5463 24.9287 23.2717C24.9973 22.9971 24.9867 22.7087 24.8983 22.4398L22.5275 15.2426C22.5275 15.2427 22.5275 15.2426 22.5275 15.2426C22.4574 15.0299 22.3406 14.8355 22.1857 14.6738C22.0308 14.5121 21.8415 14.3872 21.632 14.3081L18.2683 13.0414C18.2683 13.0414 18.2682 13.0414 18.2683 13.0414ZM19.1625 21.281L23.4734 22.9084L21.1027 15.7118L17.7393 14.445L19.1625 21.281ZM6.61172 21.2876L8.03282 14.4578L4.78641 15.7069L2.50495 22.8943L6.61172 21.2876Z" fill="#3F78E0"/>
<path fill-rule="evenodd" clip-rule="evenodd" d="M16.75 6.625C16.75 7.084 16.57 7.78 16.1672 8.656C15.7765 9.5035 15.2313 10.4027 14.6395 11.2292C14.047 12.0572 13.4357 12.7735 12.931 13.2655C12.8319 13.3626 12.7298 13.4566 12.625 13.5475C12.5202 13.4566 12.4181 13.3626 12.319 13.2655C11.8143 12.7735 11.203 12.0572 10.6105 11.2292C10.018 10.4027 9.4735 9.50425 9.08275 8.656C8.68 7.77925 8.5 7.084 8.5 6.625C8.5 5.53098 8.9346 4.48177 9.70818 3.70818C10.4818 2.9346 11.531 2.5 12.625 2.5C13.719 2.5 14.7682 2.9346 15.5418 3.70818C16.3154 4.48177 16.75 5.53098 16.75 6.625ZM12.2477 13.825C12.256 13.8198 12.2648 13.8155 12.274 13.8123C12.2658 13.8178 12.257 13.8216 12.2477 13.825ZM12.9753 13.8123C12.9848 13.8157 12.9938 13.8202 13.0023 13.8257C12.993 13.8223 12.9842 13.8178 12.976 13.8123H12.9753ZM18.25 6.625C18.25 9.7315 13.75 15.25 12.625 15.25C11.5 15.25 7 9.7315 7 6.625C7 5.13316 7.59263 3.70242 8.64752 2.64752C9.70242 1.59263 11.1332 1 12.625 1C14.1168 1 15.5476 1.59263 16.6025 2.64752C17.6574 3.70242 18.25 5.13316 18.25 6.625ZM13.75 6.625C13.75 6.92337 13.6315 7.20952 13.4205 7.4205C13.2095 7.63147 12.9234 7.75 12.625 7.75C12.3266 7.75 12.0405 7.63147 11.8295 7.4205C11.6185 7.20952 11.5 6.92337 11.5 6.625C11.5 6.32663 11.6185 6.04048 11.8295 5.8295C12.0405 5.61853 12.3266 5.5 12.625 5.5C12.9234 5.5 13.2095 5.61853 13.4205 5.8295C13.6315 6.04048 13.75 6.32663 13.75 6.625ZM15.25 6.625C15.25 6.96972 15.1821 7.31106 15.0502 7.62954C14.9183 7.94802 14.7249 8.2374 14.4812 8.48116C14.2374 8.72491 13.948 8.91827 13.6295 9.05018C13.3111 9.1821 12.9697 9.25 12.625 9.25C12.2803 9.25 11.9389 9.1821 11.6205 9.05018C11.302 8.91827 11.0126 8.72491 10.7688 8.48116C10.5251 8.2374 10.3317 7.94802 10.1998 7.62954C10.0679 7.31106 10 6.96972 10 6.625C10 5.92881 10.2766 5.26113 10.7688 4.76884C11.2611 4.27656 11.9288 4 12.625 4C13.3212 4 13.9889 4.27656 14.4812 4.76884C14.9734 5.26113 15.25 5.92881 15.25 6.625Z" fill="black"/>
</svg>
