<svg width="28" height="28" viewBox="0 0 28 28" fill="none" xmlns="http://www.w3.org/2000/svg">
<path d="M20.7695 15.5992C20.7689 15.599 13.6223 13.9818 13.6223 13.9818C11.4922 13.4997 10.156 11.3821 10.6379 9.25179C11.1201 7.12151 13.2377 5.78553 15.3679 6.26744C17.4982 6.74952 18.8343 8.86718 18.3523 10.9973C18.1108 12.0638 17.4594 12.9305 16.6016 13.4704C16.6015 13.4704 16.5994 13.4725 16.5986 13.4725C16.5734 13.4907 16.557 13.5201 16.557 13.5533C16.557 13.5997 16.5891 13.6388 16.6325 13.6492C16.6326 13.6493 19.8117 14.3682 19.8122 14.3682C19.8879 14.3854 19.9664 14.3562 20.0129 14.2948C20.8887 13.1359 21.415 11.6897 21.415 10.1256C21.415 6.44229 18.5373 3.43215 14.9075 3.21836C14.8751 3.21624 14.6784 3.20883 14.612 3.20777C13.0049 3.18252 11.3754 3.64332 9.95842 4.63566C6.38004 7.14122 5.51063 12.073 8.01593 15.6513L14.3743 24.732C14.4014 24.769 14.4451 24.793 14.4942 24.793C14.5437 24.793 14.5875 24.7686 14.6146 24.7314C14.6146 24.7314 20.8583 15.8271 20.8589 15.8263C20.8748 15.8028 20.8842 15.7741 20.8842 15.7435C20.8842 15.673 20.8353 15.6142 20.7695 15.5992Z" fill="#FABC26"/>
</svg>
